<?xml version="1.0"?><svg id="Layer_2" xmlns="http://www.w3.org/2000/svg" xmlns:xlink="http://www.w3.org/1999/xlink" viewBox="0 0 70.519 92.698"><defs><clipPath id="clippath"><rect width="70.519" height="92.698" style="fill:none;"></rect></clipPath></defs><g id="Components"><g id="_5200b066-5227-42fd-9c90-c4544de69dfb_10"><g style="clip-path:url(#clippath);"><path d="M1.8924,84.0044h.043c.498-.783,1.167-1.195,2.162-1.195,1.509,0,2.519,1.138,2.519,2.732v4.766h-1.935v-4.482c0-.782-.455-1.337-1.267-1.337-.853,0-1.479.683-1.479,1.679v4.14H.0004v-7.299h1.892v.996Z" style="fill:#f5f0e8;"></path><polygon points="9.818 86.4375 7.442 83.0085 9.647 83.0085 10.942 85.1005 10.971 85.1005 12.194 83.0085 14.2 83.0085 11.938 86.4235 14.542 90.3075 12.237 90.3075 10.885 87.8885 10.857 87.8885 9.277 90.3075 7.157 90.3075 9.818 86.4375" style="fill:#f5f0e8;"></polygon><path d="M14.4283,83.0085h1.01v-2.277h1.893v2.277h1.252v1.28h-1.252v3.871c0,.54.299.725.725.725.242,0,.569-.014.569-.014v1.423s-.441.028-1.209.028c-.939,0-1.978-.37-1.978-1.75v-4.283h-1.01v-1.28Z" style="fill:#f5f0e8;"></path><path d="M21.6845,83.0082h1.865v.911h.042c.47-.64,1.153-1.11,2.149-1.11,1.935,0,3.173,1.579,3.173,3.856,0,2.362-1.281,3.856-3.159,3.856-1.025,0-1.693-.413-2.106-1.039h-.028v3.216h-1.936v-9.69ZM26.9495,86.7222c0-1.38-.484-2.348-1.679-2.348-1.209,0-1.693,1.039-1.693,2.348,0,1.323.612,2.191,1.764,2.191.982,0,1.608-.811,1.608-2.191" style="fill:#f5f0e8;"></path><path d="M31.6027,83.9618h.043c.526-.768,1.124-1.153,2.12-1.153,1.508,0,2.518,1.139,2.518,2.732v4.767h-1.935v-4.482c0-.783-.455-1.338-1.266-1.338-.854,0-1.48.683-1.48,1.679v4.141h-1.935v-10.174h1.935v3.828Z" style="fill:#f5f0e8;"></path><path d="M41.7055,89.4964h-.029c-.37.555-.896.982-2.148.982-1.494,0-2.547-.783-2.547-2.234,0-1.608,1.309-2.12,2.931-2.348,1.209-.17,1.764-.27,1.764-.825,0-.526-.412-.868-1.223-.868-.911,0-1.352.327-1.409,1.025h-1.722c.057-1.281,1.011-2.405,3.145-2.405,2.191,0,3.073.982,3.073,2.689v3.714c0,.555.086.882.256,1.01v.071h-1.863c-.114-.142-.186-.483-.228-.811M41.7195,87.7324v-1.096c-.341.2-.868.313-1.352.427-1.01.228-1.508.455-1.508,1.138s.455.925,1.138.925c1.11,0,1.722-.683,1.722-1.394" style="fill:#f5f0e8;"></path><path d="M44.1669,87.9457h1.793c.128.84.726,1.21,1.593,1.21.854,0,1.338-.328,1.338-.84,0-.697-.925-.768-1.921-.968-1.309-.256-2.589-.611-2.589-2.205,0-1.579,1.309-2.334,2.973-2.334,1.921,0,2.988.954,3.13,2.419h-1.75c-.085-.782-.583-1.067-1.408-1.067-.754,0-1.252.285-1.252.811,0,.626.967.683,2.006.897,1.224.256,2.575.597,2.575,2.305,0,1.465-1.252,2.348-3.073,2.348-2.12,0-3.301-1.025-3.415-2.576" style="fill:#f5f0e8;"></path><path d="M51.0964,86.6513c0-2.163,1.465-3.842,3.6-3.842,2.347,0,3.6,1.793,3.6,4.397h-5.294c.142,1.124.769,1.821,1.864,1.821.754,0,1.196-.342,1.409-.897h1.907c-.271,1.295-1.423,2.391-3.301,2.391-2.419,0-3.785-1.693-3.785-3.87M53.0314,85.8683h3.244c-.057-.925-.669-1.565-1.551-1.565-1.025,0-1.523.612-1.693,1.565" style="fill:#f5f0e8;"></path><path d="M65.6666,89.4964h-.029c-.37.555-.896.982-2.148.982-1.494,0-2.547-.783-2.547-2.234,0-1.608,1.309-2.12,2.931-2.348,1.209-.17,1.764-.27,1.764-.825,0-.526-.412-.868-1.223-.868-.911,0-1.352.327-1.409,1.025h-1.722c.057-1.281,1.011-2.405,3.145-2.405,2.191,0,3.073.982,3.073,2.689v3.714c0,.555.086.882.256,1.01v.071h-1.863c-.114-.142-.185-.483-.228-.811M65.6806,87.7324v-1.096c-.341.2-.868.313-1.352.427-1.01.228-1.508.455-1.508,1.138s.456.925,1.138.925c1.11,0,1.722-.683,1.722-1.394" style="fill:#f5f0e8;"></path><path d="M68.583,80.134h1.935v1.736h-1.935v-1.736ZM68.583,83.009h1.935v7.299h-1.935v-7.299Z" style="fill:#f5f0e8;"></path><path d="M32.0792,40.534l35.642.03c1.545.001,2.797,1.32,2.797,2.947v23.537c0,2.263-2.322,3.681-4.189,2.559l-35.641-23.567c-2.494-1.5-1.481-5.508,1.391-5.506" style="fill:#f5f0e8;"></path><path d="M38.958,69.9862l-35.642-.03c-1.545-.001-2.797-1.32-2.797-2.947v-21.406c0-2.263,2.322-3.681,4.189-2.559l35.641,21.436c2.494,1.5,1.481,5.508-1.391,5.506" style="fill:#f5f0e8;"></path><path d="M38.958,29.465l-35.642-.03c-1.545-.001-2.797-1.32-2.797-2.947V2.951C.519.688,2.841-.73,4.708.392l35.641,23.567c2.494,1.5,1.481,5.508-1.391,5.506" style="fill:#f5f0e8;"></path><path d="M32.0792.0128l35.642.03c1.545.001,2.797,1.32,2.797,2.947v21.406c0,2.263-2.322,3.681-4.189,2.559L30.6882,5.5188C28.1942,4.0188,29.2072.0108,32.0792.0128" style="fill:#f5f0e8;"></path></g></g></g></svg>