<svg width="128" height="128" viewBox="0 0 128 128" xmlns="http://www.w3.org/2000/svg" xmlns:xlink="http://www.w3.org/1999/xlink" overflow="hidden"><circle cx="76" cy="48" r="2" fill="#3D2B1F"></circle><circle cx="82.8" cy="51.4" r="2" fill="#3D2B1F"></circle><circle cx="89.6" cy="54.8" r="2" fill="#3D2B1F"></circle><circle cx="96.4" cy="58.2" r="2" fill="#3D2B1F"></circle><circle cx="103.2" cy="61.6" r="2" fill="#3D2B1F"></circle><circle cx="110" cy="65" r="2" fill="#3D2B1F"></circle><circle cx="116" cy="68.95" r="2" fill="#3D2B1F"></circle><circle cx="116" cy="76.55" r="2" fill="#3D2B1F"></circle><circle cx="115.85" cy="83.95" r="2" fill="#3D2B1F"></circle><circle cx="108.4" cy="82.5" r="2" fill="#3D2B1F"></circle><circle cx="100.95" cy="81" r="2" fill="#3D2B1F"></circle><circle cx="93.5" cy="79.5" r="2" fill="#3D2B1F"></circle><circle cx="86" cy="78" r="2" fill="#3D2B1F"></circle><circle cx="78.55" cy="76.5" r="2" fill="#3D2B1F"></circle><circle cx="76" cy="81" r="2" fill="#3D2B1F"></circle><circle cx="76" cy="88.6" r="2" fill="#3D2B1F"></circle><circle cx="79" cy="95" r="2" fill="#3D2B1F"></circle><circle cx="84" cy="100.5" r="2" fill="#3D2B1F"></circle><circle cx="84" cy="108.1" r="2" fill="#3D2B1F"></circle><circle cx="84" cy="115.7" r="2" fill="#3D2B1F"></circle><circle cx="77.2" cy="113.3" r="2" fill="#3D2B1F"></circle><circle cx="70.15" cy="110.45" r="2" fill="#3D2B1F"></circle><circle cx="63.05" cy="108.35" r="2" fill="#3D2B1F"></circle><circle cx="56" cy="111.2" r="2" fill="#3D2B1F"></circle><circle cx="48.95" cy="114.05" r="2" fill="#3D2B1F"></circle><circle cx="44" cy="113.7" r="2" fill="#3D2B1F"></circle><circle cx="44" cy="106.1" r="2" fill="#3D2B1F"></circle><circle cx="45.05" cy="98.95" r="2" fill="#3D2B1F"></circle><circle cx="50.45" cy="93.55" r="2" fill="#3D2B1F"></circle><circle cx="52" cy="86.6" r="2" fill="#3D2B1F"></circle><circle cx="52" cy="79" r="2" fill="#3D2B1F"></circle><circle cx="47.45" cy="76.9" r="2" fill="#3D2B1F"></circle><circle cx="40" cy="78.4" r="2" fill="#3D2B1F"></circle><circle cx="32.55" cy="79.9" r="2" fill="#3D2B1F"></circle><circle cx="25.1" cy="81.4" r="2" fill="#3D2B1F"></circle><circle cx="17.6" cy="82.9" r="2" fill="#3D2B1F"></circle><circle cx="12" cy="82.15" r="2" fill="#3D2B1F"></circle><circle cx="12" cy="74.5" r="2" fill="#3D2B1F"></circle><circle cx="12.95" cy="67.5" r="2" fill="#3D2B1F"></circle><circle cx="19.8" cy="64.1" r="2" fill="#3D2B1F"></circle><circle cx="26.6" cy="60.7" r="2" fill="#3D2B1F"></circle><circle cx="33.4" cy="57.3" r="2" fill="#3D2B1F"></circle><circle cx="40.2" cy="53.9" r="2" fill="#3D2B1F"></circle><circle cx="47" cy="50.5" r="2" fill="#3D2B1F"></circle><circle cx="52" cy="46" r="2" fill="#3D2B1F"></circle><circle cx="52" cy="38.4" r="2" fill="#3D2B1F"></circle><circle cx="52" cy="30.75" r="2" fill="#3D2B1F"></circle><circle cx="52.05" cy="23.15" r="2" fill="#3D2B1F"></circle><circle cx="54.85" cy="16.25" r="2" fill="#3D2B1F"></circle><circle cx="61.25" cy="12.3" r="2" fill="#3D2B1F"></circle><circle cx="68.7" cy="12.95" r="2" fill="#3D2B1F"></circle><circle cx="74.3" cy="17.85" r="2" fill="#3D2B1F"></circle><circle cx="76" cy="25.2" r="2" fill="#3D2B1F"></circle><circle cx="76" cy="32.8" r="2" fill="#3D2B1F"></circle><circle cx="76" cy="40.4" r="2" fill="#3D2B1F"></circle></svg>