<svg width="128" height="128" viewBox="0 0 128 128" xmlns="http://www.w3.org/2000/svg" xmlns:xlink="http://www.w3.org/1999/xlink" overflow="hidden"><circle cx="32" cy="36" r="2" fill="#3D2B1F"></circle><circle cx="33.2" cy="28.2" r="2" fill="#3D2B1F"></circle><circle cx="36.85" cy="21.3" r="2" fill="#3D2B1F"></circle><circle cx="43.15" cy="16.65" r="2" fill="#3D2B1F"></circle><circle cx="50.85" cy="16.65" r="2" fill="#3D2B1F"></circle><circle cx="57.15" cy="21.3" r="2" fill="#3D2B1F"></circle><circle cx="60.8" cy="28.2" r="2" fill="#3D2B1F"></circle><circle cx="62" cy="36" r="2" fill="#3D2B1F"></circle><circle cx="60.8" cy="43.8" r="2" fill="#3D2B1F"></circle><circle cx="57.15" cy="50.7" r="2" fill="#3D2B1F"></circle><circle cx="50.85" cy="55.35" r="2" fill="#3D2B1F"></circle><circle cx="43.15" cy="55.35" r="2" fill="#3D2B1F"></circle><circle cx="36.85" cy="50.7" r="2" fill="#3D2B1F"></circle><circle cx="33.2" cy="43.8" r="2" fill="#3D2B1F"></circle><circle cx="68" cy="92" r="2" fill="#3D2B1F"></circle><circle cx="69.2" cy="84.2" r="2" fill="#3D2B1F"></circle><circle cx="72.85" cy="77.3" r="2" fill="#3D2B1F"></circle><circle cx="79.15" cy="72.65" r="2" fill="#3D2B1F"></circle><circle cx="86.85" cy="72.65" r="2" fill="#3D2B1F"></circle><circle cx="93.15" cy="77.3" r="2" fill="#3D2B1F"></circle><circle cx="96.8" cy="84.2" r="2" fill="#3D2B1F"></circle><circle cx="98" cy="92" r="2" fill="#3D2B1F"></circle><circle cx="96.8" cy="99.8" r="2" fill="#3D2B1F"></circle><circle cx="93.15" cy="106.7" r="2" fill="#3D2B1F"></circle><circle cx="86.85" cy="111.35" r="2" fill="#3D2B1F"></circle><circle cx="79.15" cy="111.35" r="2" fill="#3D2B1F"></circle><circle cx="72.85" cy="106.7" r="2" fill="#3D2B1F"></circle><circle cx="69.2" cy="99.8" r="2" fill="#3D2B1F"></circle><circle cx="88" cy="56" r="2" fill="#3D2B1F"></circle><circle cx="88" cy="48.3" r="2" fill="#3D2B1F"></circle><circle cx="88" cy="40.65" r="2" fill="#3D2B1F"></circle><circle cx="88" cy="32.95" r="2" fill="#3D2B1F"></circle><circle cx="88" cy="25.3" r="2" fill="#3D2B1F"></circle><circle cx="88" cy="17.6" r="2" fill="#3D2B1F"></circle><circle cx="82.7" cy="18.95" r="2" fill="#3D2B1F"></circle><circle cx="76" cy="22.65" r="2" fill="#3D2B1F"></circle><circle cx="48" cy="112" r="2" fill="#3D2B1F"></circle><circle cx="48" cy="104.3" r="2" fill="#3D2B1F"></circle><circle cx="48" cy="96.65" r="2" fill="#3D2B1F"></circle><circle cx="48" cy="88.95" r="2" fill="#3D2B1F"></circle><circle cx="48" cy="81.3" r="2" fill="#3D2B1F"></circle><circle cx="48" cy="73.6" r="2" fill="#3D2B1F"></circle><circle cx="42.7" cy="74.95" r="2" fill="#3D2B1F"></circle><circle cx="36" cy="78.65" r="2" fill="#3D2B1F"></circle></svg>